<?xml version="1.0" encoding="utf-8"?>
<!-- Generator: Adobe Illustrator 18.1.1, SVG Export Plug-In . SVG Version: 6.00 Build 0)  -->
<svg version="1.1" id="Layer_1" xmlns="http://www.w3.org/2000/svg" xmlns:xlink="http://www.w3.org/1999/xlink" x="0px" y="0px"
	 viewBox="0 0 75.4 71.2" enable-background="new 0 0 75.4 71.2" xml:space="preserve">
<g id="VIRUS_GROUP">
	<g opacity="0.5">
		<circle cx="42.3" cy="38.4" r="21.5"/>
		<rect x="41.1" y="10.6" width="2.5" height="8"/>
		<path d="M39,9.1h6.7c1.1,0,2,0.9,2,2l0,0c0,1.1-0.9,2-2,2H39c-1.1,0-2-0.9-2-2l0,0C37,9.9,37.9,9.1,39,9.1z"/>
		<rect x="25.8" y="16.2" transform="matrix(-0.766 0.6428 -0.6428 -0.766 60.7064 18.3034)" width="2.5" height="8"/>
		<path d="M20.9,18.1l5.2-4.3c0.8-0.7,2.1-0.6,2.8,0.2l0,0c0.7,0.8,0.6,2.1-0.2,2.8l-5.2,4.3c-0.8,0.7-2.1,0.6-2.8-0.2l0,0
			C19.9,20,20,18.8,20.9,18.1z"/>
		<rect x="17.6" y="30.3" transform="matrix(-0.1737 0.9848 -0.9848 -0.1737 55.9406 21.6714)" width="2.5" height="8"/>
		<path d="M12.8,36.7L14,30c0.2-1.1,1.2-1.8,2.3-1.6l0,0c1.1,0.2,1.8,1.2,1.6,2.3l-1.2,6.6c-0.2,1.1-1.2,1.8-2.3,1.6l0,0
			C13.3,38.7,12.6,37.7,12.8,36.7z"/>
		<rect x="20.5" y="46.4" transform="matrix(0.5 0.866 -0.866 0.5 54.4536 6.3741)" width="2.5" height="8"/>
		<path d="M18.6,56l-3.4-5.8c-0.5-0.9-0.2-2.1,0.7-2.7l0,0c0.9-0.5,2.1-0.2,2.7,0.7l3.4,5.8c0.5,0.9,0.2,2.1-0.7,2.7l0,0
			C20.3,57.3,19.1,57,18.6,56z"/>
		<rect x="32.9" y="56.8" transform="matrix(0.9397 0.342 -0.342 0.9397 22.8638 -8.0243)" width="2.5" height="8"/>
		<path d="M35.4,67.2l-6.3-2.3c-1-0.4-1.5-1.5-1.2-2.5l0,0c0.4-1,1.5-1.5,2.5-1.2l6.3,2.3c1,0.4,1.5,1.5,1.2,2.5l0,0
			C37.6,67,36.5,67.6,35.4,67.2z"/>
		<rect x="49.2" y="56.8" transform="matrix(0.9397 -0.342 0.342 0.9397 -17.7576 20.9321)" width="2.5" height="8"/>
		<path d="M55.5,64.9l-6.3,2.3c-1,0.4-2.1-0.2-2.5-1.2l0,0c-0.4-1,0.2-2.1,1.2-2.5l6.3-2.3c1-0.4,2.1,0.2,2.5,1.2l0,0
			C57.1,63.4,56.6,64.5,55.5,64.9z"/>
		<rect x="61.7" y="46.4" transform="matrix(0.5 -0.866 0.866 0.5 -12.1267 79.6877)" width="2.5" height="8"/>
		<path d="M69.5,50.2L66.1,56c-0.5,0.9-1.7,1.3-2.7,0.7l0,0c-0.9-0.5-1.3-1.7-0.7-2.7l3.4-5.8c0.5-0.9,1.7-1.3,2.7-0.7l0,0
			C69.7,48.1,70,49.3,69.5,50.2z"/>
		<rect x="64.5" y="30.3" transform="matrix(-0.1737 -0.9848 0.9848 -0.1737 43.4162 105.0411)" width="2.5" height="8"/>
		<path d="M70.7,30l1.2,6.6c0.2,1.1-0.5,2.1-1.6,2.3l0,0c-1.1,0.2-2.1-0.5-2.3-1.6l-1.2-6.6c-0.2-1.1,0.5-2.1,1.6-2.3h0
			C69.5,28.2,70.5,29,70.7,30z"/>
		<rect x="56.4" y="16.2" transform="matrix(-0.766 -0.6428 0.6428 -0.766 88.7992 72.7198)" width="2.5" height="8"/>
		<path d="M58.6,13.8l5.2,4.3c0.8,0.7,0.9,1.9,0.2,2.8l0,0c-0.7,0.8-1.9,0.9-2.8,0.2l-5.2-4.3c-0.8-0.7-0.9-1.9-0.2-2.8l0,0
			C56.6,13.2,57.8,13.1,58.6,13.8z"/>
		<circle cx="38.8" cy="35" r="4.3"/>
		<path d="M50.9,35.6l0.9,1c0.2,0.2,0.6,0.3,0.8,0.1l3.4-2.8L54.4,32L51,34.8C50.7,35,50.7,35.4,50.9,35.6z"/>
		<ellipse transform="matrix(0.7673 -0.6413 0.6413 0.7673 -8.3197 43.075)" cx="55.2" cy="33" rx="2.9" ry="4.6"/>
		<path d="M38.2,28.2l1.2-0.5c0.3-0.1,0.4-0.5,0.3-0.7l-1.7-4.1l-2.3,0.9l1.7,4.1C37.6,28.2,37.9,28.3,38.2,28.2z"/>
		<ellipse transform="matrix(-0.3821 -0.9241 0.9241 -0.3821 29.5849 66.399)" cx="37" cy="23.3" rx="2.9" ry="4.6"/>
		<path d="M44.1,47.4l-1.3,0.3c-0.3,0.1-0.5,0.4-0.4,0.7l1,5.2l2.4-0.5l-1-5.2C44.7,47.5,44.4,47.3,44.1,47.4z"/>
		<ellipse transform="matrix(0.1918 0.9814 -0.9814 0.1918 88.1832 -0.6358)" cx="44.5" cy="53.2" rx="2.9" ry="4.6"/>
	</g>
	<g>
		<g>
			<g>
				<g>
					<circle fill="#00C0B1" cx="37.3" cy="33.4" r="21.5"/>
					<g>
						<rect x="36.1" y="5.6" fill="#00C0B1" width="2.5" height="8"/>
						<path fill="#00C0B1" d="M34,4.1h6.7c1.1,0,2,0.9,2,2l0,0c0,1.1-0.9,2-2,2H34c-1.1,0-2-0.9-2-2l0,0C32,4.9,32.9,4.1,34,4.1z"/>
					</g>
					<g>
						
							<rect x="20.8" y="11.2" transform="matrix(-0.766 0.6428 -0.6428 -0.766 48.6622 12.6872)" fill="#00C0B1" width="2.5" height="8"/>
						<path fill="#00C0B1" d="M15.9,13.1L21,8.8c0.8-0.7,2.1-0.6,2.8,0.2l0,0c0.7,0.8,0.6,2.1-0.2,2.8l-5.2,4.3
							c-0.8,0.7-2.1,0.6-2.8-0.2l0,0C14.9,15,15,13.8,15.9,13.1z"/>
					</g>
					<g>
						
							<rect x="12.6" y="25.3" transform="matrix(-0.1737 0.9848 -0.9848 -0.1737 45.1483 20.7272)" fill="#00C0B1" width="2.5" height="8"/>
						<path fill="#00C0B1" d="M7.8,31.7L9,25c0.2-1.1,1.2-1.8,2.3-1.6l0,0c1.1,0.2,1.8,1.2,1.6,2.3l-1.2,6.6
							c-0.2,1.1-1.2,1.8-2.3,1.6l0,0C8.3,33.7,7.6,32.7,7.8,31.7z"/>
					</g>
					<g>
						<rect x="15.5" y="41.4" transform="matrix(0.5 0.866 -0.866 0.5 47.6235 8.2043)" fill="#00C0B1" width="2.5" height="8"/>
						<path fill="#00C0B1" d="M13.6,51l-3.4-5.8c-0.5-0.9-0.2-2.1,0.7-2.7l0,0c0.9-0.5,2.1-0.2,2.7,0.7l3.4,5.8
							c0.5,0.9,0.2,2.1-0.7,2.7l0,0C15.3,52.3,14.1,52,13.6,51z"/>
					</g>
					<g>
						
							<rect x="27.9" y="51.8" transform="matrix(0.9397 0.342 -0.342 0.9397 20.852 -6.6156)" fill="#00C0B1" width="2.5" height="8"/>
						<path fill="#00C0B1" d="M30.4,62.2l-6.3-2.3c-1-0.4-1.5-1.5-1.2-2.5l0,0c0.4-1,1.5-1.5,2.5-1.2l6.3,2.3c1,0.4,1.5,1.5,1.2,2.5
							l0,0C32.6,62,31.5,62.6,30.4,62.2z"/>
					</g>
					<g>
						
							<rect x="44.2" y="51.8" transform="matrix(0.9397 -0.342 0.342 0.9397 -16.3489 18.9203)" fill="#00C0B1" width="2.5" height="8"/>
						<path fill="#00C0B1" d="M50.5,59.9l-6.3,2.3c-1,0.4-2.1-0.2-2.5-1.2l0,0c-0.4-1,0.2-2.1,1.2-2.5l6.3-2.3
							c1-0.4,2.1,0.2,2.5,1.2l0,0C52.1,58.4,51.6,59.5,50.5,59.9z"/>
					</g>
					<g>
						<rect x="56.7" y="41.4" transform="matrix(0.5 -0.866 0.866 0.5 -10.2965 72.8577)" fill="#00C0B1" width="2.5" height="8"/>
						<path fill="#00C0B1" d="M64.5,45.2L61.1,51c-0.5,0.9-1.7,1.3-2.7,0.7l0,0c-0.9-0.5-1.3-1.7-0.7-2.7l3.4-5.8
							c0.5-0.9,1.7-1.3,2.7-0.7l0,0C64.7,43.1,65,44.3,64.5,45.2z"/>
					</g>
					<g>
						
							<rect x="59.5" y="25.3" transform="matrix(-0.1737 -0.9848 0.9848 -0.1737 42.472 94.2488)" fill="#00C0B1" width="2.5" height="8"/>
						<path fill="#00C0B1" d="M65.7,25l1.2,6.6c0.2,1.1-0.5,2.1-1.6,2.3l0,0c-1.1,0.2-2.1-0.5-2.3-1.6l-1.2-6.6
							c-0.2-1.1,0.5-2.1,1.6-2.3h0C64.5,23.2,65.5,24,65.7,25z"/>
					</g>
					<g>
						
							<rect x="51.4" y="11.2" transform="matrix(-0.766 -0.6428 0.6428 -0.766 83.183 60.6757)" fill="#00C0B1" width="2.5" height="8"/>
						<path fill="#00C0B1" d="M53.6,8.8l5.2,4.3c0.8,0.7,0.9,1.9,0.2,2.8l0,0c-0.7,0.8-1.9,0.9-2.8,0.2l-5.2-4.3
							c-0.8-0.7-0.9-1.9-0.2-2.8l0,0C51.6,8.2,52.8,8.1,53.6,8.8z"/>
					</g>
					<circle fill="#00A498" cx="33.8" cy="30" r="4.3"/>
					<g>
						<path fill="#00A498" d="M45.9,30.6l0.9,1c0.2,0.2,0.6,0.3,0.8,0.1l3.4-2.8L49.4,27L46,29.8C45.7,30,45.7,30.4,45.9,30.6z"/>
						
							<ellipse transform="matrix(0.7673 -0.6413 0.6413 0.7673 -6.2768 38.7051)" fill="#00A498" cx="50.2" cy="28" rx="2.9" ry="4.6"/>
					</g>
					<g>
						<path fill="#00A498" d="M33.2,23.2l1.2-0.5c0.3-0.1,0.4-0.5,0.3-0.7l-1.7-4.1l-2.3,0.9l1.7,4.1C32.6,23.2,32.9,23.3,33.2,23.2
							z"/>
						
							<ellipse transform="matrix(-0.3821 -0.9241 0.9241 -0.3821 27.2949 54.8679)" fill="#00A498" cx="32" cy="18.3" rx="2.9" ry="4.6"/>
					</g>
					<g>
						<path fill="#00A498" d="M39.1,42.4l-1.3,0.3c-0.3,0.1-0.5,0.4-0.4,0.7l1,5.2l2.4-0.5l-1-5.2C39.7,42.5,39.4,42.3,39.1,42.4z"
							/>
						
							<ellipse transform="matrix(0.1918 0.9814 -0.9814 0.1918 79.2352 0.2304)" fill="#00A498" cx="39.5" cy="48.2" rx="2.9" ry="4.6"/>
					</g>
				</g>
			</g>
		</g>
	</g>
</g>
</svg>
