<?xml version="1.0" encoding="UTF-8" standalone="no"?>
<!-- Generator: Adobe Illustrator 18.1.1, SVG Export Plug-In . SVG Version: 6.00 Build 0)  -->
<svg id="Layer_1" xmlns="http://www.w3.org/2000/svg" xml:space="preserve" viewBox="0 0 75.4 71.2" version="1.1" y="0px" x="0px" xmlns:xlink="http://www.w3.org/1999/xlink" enable-background="new 0 0 75.4 71.2">
<g id="VIRUS_GROUP">
	<g opacity=".5">
		<circle cy="38.4" cx="42.3" r="21.5"/>
		<rect y="10.6" x="41.1" height="8" width="2.5"/>
		<path d="m39 9.1h6.7c1.1 0 2 0.9 2 2s-0.9 2-2 2h-6.7c-1.1 0-2-0.9-2-2 0-1.2 0.9-2 2-2z"/>
		<rect y="16.2" x="25.8" height="8" transform="matrix(-.766 .6428 -.6428 -.766 60.706 18.303)" width="2.5"/>
		<path d="m20.9 18.1l5.2-4.3c0.8-0.7 2.1-0.6 2.8 0.2s0.6 2.1-0.2 2.8l-5.2 4.3c-0.8 0.7-2.1 0.6-2.8-0.2-0.8-0.9-0.7-2.1 0.2-2.8z"/>
		<rect y="30.3" x="17.6" height="8" transform="matrix(-.1737 .9848 -.9848 -.1737 55.941 21.671)" width="2.5"/>
		<path d="m12.8 36.7l1.2-6.7c0.2-1.1 1.2-1.8 2.3-1.6s1.8 1.2 1.6 2.3l-1.2 6.6c-0.2 1.1-1.2 1.8-2.3 1.6s-1.8-1.2-1.6-2.2z"/>
		<rect y="46.4" x="20.5" height="8" transform="matrix(.5 .866 -.866 .5 54.454 6.3741)" width="2.5"/>
		<path d="m18.6 56l-3.4-5.8c-0.5-0.9-0.2-2.1 0.7-2.7 0.9-0.5 2.1-0.2 2.7 0.7l3.4 5.8c0.5 0.9 0.2 2.1-0.7 2.7-1 0.6-2.2 0.3-2.7-0.7z"/>
		<rect y="56.8" x="32.9" height="8" transform="matrix(.9397 .342 -.342 .9397 22.864 -8.0243)" width="2.5"/>
		<path d="m35.4 67.2l-6.3-2.3c-1-0.4-1.5-1.5-1.2-2.5 0.4-1 1.5-1.5 2.5-1.2l6.3 2.3c1 0.4 1.5 1.5 1.2 2.5s-1.4 1.6-2.5 1.2z"/>
		<rect y="56.8" x="49.2" height="8" transform="matrix(.9397 -.342 .342 .9397 -17.758 20.932)" width="2.5"/>
		<path d="m55.5 64.9l-6.3 2.3c-1 0.4-2.1-0.2-2.5-1.2s0.2-2.1 1.2-2.5l6.3-2.3c1-0.4 2.1 0.2 2.5 1.2s-0.1 2.1-1.2 2.5z"/>
		<rect y="46.4" x="61.7" height="8" transform="matrix(.5 -.866 .866 .5 -12.127 79.688)" width="2.5"/>
		<path d="m69.5 50.2l-3.4 5.8c-0.5 0.9-1.7 1.3-2.7 0.7-0.9-0.5-1.3-1.7-0.7-2.7l3.4-5.8c0.5-0.9 1.7-1.3 2.7-0.7 0.9 0.6 1.2 1.8 0.7 2.7z"/>
		<rect y="30.3" x="64.5" height="8" transform="matrix(-.1737 -.9848 .9848 -.1737 43.416 105.04)" width="2.5"/>
		<path d="m70.7 30l1.2 6.6c0.2 1.1-0.5 2.1-1.6 2.3s-2.1-0.5-2.3-1.6l-1.2-6.6c-0.2-1.1 0.5-2.1 1.6-2.3s2.1 0.6 2.3 1.6z"/>
		<rect y="16.2" x="56.4" height="8" transform="matrix(-.766 -.6428 .6428 -.766 88.799 72.72)" width="2.5"/>
		<path d="m58.6 13.8l5.2 4.3c0.8 0.7 0.9 1.9 0.2 2.8-0.7 0.8-1.9 0.9-2.8 0.2l-5.2-4.3c-0.8-0.7-0.9-1.9-0.2-2.8 0.8-0.8 2-0.9 2.8-0.2z"/>
		<circle cy="35" cx="38.8" r="4.3"/>
		<path d="m50.9 35.6l0.9 1c0.2 0.2 0.6 0.3 0.8 0.1l3.4-2.8-1.6-1.9-3.4 2.8c-0.3 0.2-0.3 0.6-0.1 0.8z"/>
		<ellipse cy="33" cx="55.2" rx="2.9" transform="matrix(.7673 -.6413 .6413 .7673 -8.3197 43.075)" ry="4.6"/>
		<path d="m38.2 28.2l1.2-0.5c0.3-0.1 0.4-0.5 0.3-0.7l-1.7-4.1-2.3 0.9 1.7 4.1c0.2 0.3 0.5 0.4 0.8 0.3z"/>
		<ellipse cy="23.3" cx="37" rx="2.9" transform="matrix(-.3821 -.9241 .9241 -.3821 29.585 66.399)" ry="4.6"/>
		<path d="m44.1 47.4l-1.3 0.3c-0.3 0.1-0.5 0.4-0.4 0.7l1 5.2 2.4-0.5-1-5.2c-0.1-0.4-0.4-0.6-0.7-0.5z"/>
		<ellipse cy="53.2" cx="44.5" rx="2.9" transform="matrix(.1918 .9814 -.9814 .1918 88.183 -.6358)" ry="4.6"/>
	</g>
					<circle cy="33.4" cx="37.3" r="21.5" fill="#00C0B1"/>
					<g fill="#00C0B1">
						<rect y="5.6" x="36.1" height="8" width="2.5"/>
						<path d="m34 4.1h6.7c1.1 0 2 0.9 2 2s-0.9 2-2 2h-6.7c-1.1 0-2-0.9-2-2 0-1.2 0.9-2 2-2z"/>
					</g>
					<g fill="#00C0B1">
							<rect transform="matrix(-.766 .6428 -.6428 -.766 48.662 12.687)" height="8" width="2.5" y="11.2" x="20.8"/>
						<path d="m15.9 13.1l5.1-4.3c0.8-0.7 2.1-0.6 2.8 0.2s0.6 2.1-0.2 2.8l-5.2 4.3c-0.8 0.7-2.1 0.6-2.8-0.2-0.7-0.9-0.6-2.1 0.3-2.8z"/>
					</g>
					<g fill="#00C0B1">
							<rect transform="matrix(-.1737 .9848 -.9848 -.1737 45.148 20.727)" height="8" width="2.5" y="25.3" x="12.6"/>
						<path d="m7.8 31.7l1.2-6.7c0.2-1.1 1.2-1.8 2.3-1.6s1.8 1.2 1.6 2.3l-1.2 6.6c-0.2 1.1-1.2 1.8-2.3 1.6s-1.8-1.2-1.6-2.2z"/>
					</g>
					<g fill="#00C0B1">
						<rect transform="matrix(.5 .866 -.866 .5 47.624 8.2043)" height="8" width="2.5" y="41.4" x="15.5"/>
						<path d="m13.6 51l-3.4-5.8c-0.5-0.9-0.2-2.1 0.7-2.7 0.9-0.5 2.1-0.2 2.7 0.7l3.4 5.8c0.5 0.9 0.2 2.1-0.7 2.7-1 0.6-2.2 0.3-2.7-0.7z"/>
					</g>
					<g fill="#00C0B1">
							<rect transform="matrix(.9397 .342 -.342 .9397 20.852 -6.6156)" height="8" width="2.5" y="51.8" x="27.9"/>
						<path d="m30.4 62.2l-6.3-2.3c-1-0.4-1.5-1.5-1.2-2.5 0.4-1 1.5-1.5 2.5-1.2l6.3 2.3c1 0.4 1.5 1.5 1.2 2.5s-1.4 1.6-2.5 1.2z"/>
					</g>
					<g fill="#00C0B1">
							<rect transform="matrix(.9397 -.342 .342 .9397 -16.349 18.92)" height="8" width="2.5" y="51.8" x="44.2"/>
						<path d="m50.5 59.9l-6.3 2.3c-1 0.4-2.1-0.2-2.5-1.2s0.2-2.1 1.2-2.5l6.3-2.3c1-0.4 2.1 0.2 2.5 1.2s-0.1 2.1-1.2 2.5z"/>
					</g>
					<g fill="#00C0B1">
						<rect transform="matrix(.5 -.866 .866 .5 -10.296 72.858)" height="8" width="2.5" y="41.4" x="56.7"/>
						<path d="m64.5 45.2l-3.4 5.8c-0.5 0.9-1.7 1.3-2.7 0.7-0.9-0.5-1.3-1.7-0.7-2.7l3.4-5.8c0.5-0.9 1.7-1.3 2.7-0.7 0.9 0.6 1.2 1.8 0.7 2.7z"/>
					</g>
					<g fill="#00C0B1">
							<rect transform="matrix(-.1737 -.9848 .9848 -.1737 42.472 94.249)" height="8" width="2.5" y="25.3" x="59.5"/>
						<path d="m65.7 25l1.2 6.6c0.2 1.1-0.5 2.1-1.6 2.3s-2.1-0.5-2.3-1.6l-1.2-6.6c-0.2-1.1 0.5-2.1 1.6-2.3s2.1 0.6 2.3 1.6z"/>
					</g>
					<g fill="#00C0B1">
							<rect transform="matrix(-.766 -.6428 .6428 -.766 83.183 60.676)" height="8" width="2.5" y="11.2" x="51.4"/>
						<path d="m53.6 8.8l5.2 4.3c0.8 0.7 0.9 1.9 0.2 2.8-0.7 0.8-1.9 0.9-2.8 0.2l-5.2-4.3c-0.8-0.7-0.9-1.9-0.2-2.8 0.8-0.8 2-0.9 2.8-0.2z"/>
					</g>
					<circle cy="30" cx="33.8" r="4.3" fill="#00A498"/>
					<g fill="#00A498">
						<path d="m45.9 30.6l0.9 1c0.2 0.2 0.6 0.3 0.8 0.1l3.4-2.8-1.6-1.9-3.4 2.8c-0.3 0.2-0.3 0.6-0.1 0.8z"/>
							<ellipse rx="2.9" ry="4.6" transform="matrix(.7673 -.6413 .6413 .7673 -6.2768 38.705)" cy="28" cx="50.2"/>
					</g>
					<g fill="#00A498">
						<path d="m33.2 23.2l1.2-0.5c0.3-0.1 0.4-0.5 0.3-0.7l-1.7-4.1-2.3 0.9 1.7 4.1c0.2 0.3 0.5 0.4 0.8 0.3z"/>
							<ellipse rx="2.9" ry="4.6" transform="matrix(-.3821 -.9241 .9241 -.3821 27.295 54.868)" cy="18.3" cx="32"/>
					</g>
					<g fill="#00A498">
						<path d="m39.1 42.4l-1.3 0.3c-0.3 0.1-0.5 0.4-0.4 0.7l1 5.2 2.4-0.5-1-5.2c-0.1-0.4-0.4-0.6-0.7-0.5z"/>
							<ellipse rx="2.9" ry="4.6" transform="matrix(.1918 .9814 -.9814 .1918 79.235 .2304)" cy="48.2" cx="39.5"/>
					</g>
</g>
</svg>
